<?xml version="1.0" encoding="UTF-8"?>
<!DOCTYPE svg PUBLIC "-//W3C//DTD SVG 1.1//EN" "http://www.w3.org/Graphics/SVG/1.1/DTD/svg11.dtd">
<!-- Creator: CorelDRAW 2021 (64-Bit) -->
<svg xmlns="http://www.w3.org/2000/svg" xml:space="preserve" width="210mm" height="297mm" version="1.1" style="shape-rendering:geometricPrecision; text-rendering:geometricPrecision; image-rendering:optimizeQuality; fill-rule:evenodd; clip-rule:evenodd"
viewBox="0 0 21000 29700"
 xmlns:xlink="http://www.w3.org/1999/xlink"
 xmlns:xodm="http://www.corel.com/coreldraw/odm/2003">
 <defs>
  <style type="text/css">
   <![CDATA[
    .str0 {stroke:#2B2A29;stroke-width:846.67;stroke-miterlimit:22.9256}
    .fil0 {fill:none}
   ]]>
  </style>
 </defs>
 <g id="Layer_x0020_1">
  <metadata id="CorelCorpID_0Corel-Layer"/>
  <path class="fil0 str0" d="M9646.12 22847.24l-58.51 -8504.44m2373.98 -6107.33l-3962 21.18m7910.6 3042.29l-2941.79 52.12m-3010.51 3356.73l-4743.41 58.12m8207.07 8077.46l-93.81 -11862.54m-1680.1 11860.83l-58.51 -14973.03m-5344.45 -1360.34c969.21,0 1754.91,782.78 1754.91,1748.31l0 0.05 0 0.03c0,15.06 -0.19,30.07 -0.58,45.05l0 0.08c-0.37,14.96 -0.95,29.89 -1.71,44.77l0 0.08c-0.76,14.87 -1.71,29.7 -2.84,44.47l0 0.08c-1.13,14.77 -2.44,29.49 -3.94,44.16l0 0.08c-1.5,14.66 -3.15,29.28 -5.02,43.84l-0.03 0.05c-1.86,14.57 -3.86,29.07 -6.1,43.53l-0.02 0.05c-2.21,14.43 -4.6,28.84 -7.18,43.16l0 0.08c-2.57,14.33 -5.31,28.58 -8.23,42.8l-0.02 0.07c-2.92,14.2 -6.02,28.31 -9.28,42.4l0 0.08c-3.26,14.06 -6.7,28.07 -10.3,42.03l0 0.08c-3.6,13.93 -7.39,27.81 -11.33,41.61l0 0.08c-3.95,13.8 -8.07,27.55 -12.33,41.19l0 0.08c-4.26,13.67 -8.73,27.25 -13.3,40.77l0 0.07c-4.6,13.51 -9.36,26.95 -14.27,40.33l-0.03 0.05c-4.92,13.38 -9.99,26.68 -15.22,39.87l0 0.06c-5.23,13.22 -10.64,26.39 -16.19,39.42l0 0.06c-5.55,13.06 -11.28,25.99 -17.11,38.9l0 0.05c-5.86,12.88 -11.88,25.71 -18.03,38.43l0 0.05c-6.16,12.72 -12.49,25.37 -18.93,37.91l-0.03 0.05c-6.44,12.54 -13.03,25 -19.79,37.38l-0.03 0.05c-6.75,12.38 -13.64,24.65 -20.66,36.82l-0.02 0.06c-12.46,21.6 -25.47,42.84 -38.83,63.84l-5.12 8.2 -0.03 0.03c-7.59,11.8 -15.32,23.55 -23.21,35.14l-0.02 0.06c-7.89,11.62 -15.91,23.1 -24.05,34.54l0 0.02c-8.15,11.41 -16.46,22.71 -24.87,33.94l0 0.02c-16.85,22.42 -34.2,44.45 -52.1,66.03l0 0.03c-8.93,10.77 -18,21.45 -27.18,32.01l-0.02 0.03c-9.18,10.57 -18.51,21.03 -27.94,31.36l-0.03 0.02c-9.44,10.33 -19,20.59 -28.68,30.68l0 0.03c-9.67,10.11 -19.47,20.1 -29.41,29.99l0 0.02c-9.91,9.89 -19.95,19.64 -30.12,29.28l0 0.03c-10.15,9.65 -20.45,19.19 -30.81,28.57l-0.03 0.03c-10.38,9.38 -20.89,18.66 -31.49,27.81l-0.02 0.03c-10.6,9.14 -21.32,18.16 -32.15,27.07l-0.03 0.03c-10.82,8.91 -21.76,17.66 -32.8,26.31l0 0.02c-11.04,8.65 -22.21,17.17 -33.46,25.55l-0.03 0.03c-11.25,8.38 -22.6,16.64 -34.06,24.73l-0.03 0.03c-11.46,8.12 -23.02,16.09 -34.67,23.95l-0.03 0.02c-11.67,7.86 -23.44,15.56 -35.3,23.13l0 0.03c-11.85,7.57 -23.81,15.01 -35.88,22.29l-0.02 0.03c-12.07,7.3 -24.21,14.43 -36.46,21.44l0 0.03c-12.25,7.02 -24.58,13.88 -37.01,20.61l-0.03 0c-12.43,6.73 -24.94,13.3 -37.53,19.74l-0.03 0.02c-12.61,6.44 -25.31,12.73 -38.08,18.85l-0.03 0c-12.78,6.13 -25.66,12.12 -38.59,17.95l-0.02 0.03c-12.96,5.84 -25.97,11.51 -39.09,17.03l-0.03 0c-13.11,5.52 -26.31,10.89 -39.58,16.12l-0.03 0.02c-13.27,5.21 -26.63,10.28 -40.06,15.17l-0.02 0c-13.44,4.89 -26.95,9.65 -40.54,14.22 -13.58,4.57 -27.25,9.02 -40.97,13.27l-0.03 0c-13.72,4.26 -27.55,8.36 -41.4,12.28l-0.03 0c-13.87,3.91 -27.83,7.7 -41.84,11.27 -14.01,3.61 -28.07,7.02 -42.24,10.28 -14.14,3.26 -28.36,6.34 -42.66,9.25 -14.28,2.92 -28.63,5.66 -43.03,8.21 -14.41,2.57 -28.86,4.96 -43.37,7.17l-0.03 0c-14.54,2.21 -29.1,4.26 -43.74,6.1 -14.64,1.87 -29.33,3.52 -44.08,5.02 -14.74,1.5 -29.54,2.81 -44.39,3.92 -14.86,1.13 -29.76,2.05 -44.72,2.81 -14.95,0.74 -29.96,1.31 -45.02,1.71 -15.06,0.37 -30.15,0.58 -45.29,0.58 -969.22,0 -1754.91,-782.78 -1754.91,-1748.37 0,-965.53 785.69,-1748.31 1754.91,-1748.31zm9665.33 4811.73l0.18 -20.61 0 -0.47c10.15,-640.02 365.5,-1196.56 888.71,-1492.87l0.02 0c12.17,-6.89 24.42,-13.65 36.75,-20.24l0.02 0c12.33,-6.6 24.77,-13.09 37.28,-19.4l0.02 0c12.52,-6.31 25.11,-12.49 37.8,-18.51l0.03 0c12.69,-6.02 25.44,-11.9 38.3,-17.63l0.02 0c12.86,-5.74 25.79,-11.33 38.8,-16.75l0.03 0c13.01,-5.41 26.1,-10.7 39.27,-15.82l0.02 0c13.17,-5.13 26.39,-10.1 39.72,-14.91l0.03 0c13.32,-4.81 26.7,-9.46 40.19,-13.95l0.02 0c13.49,-4.5 27.02,-8.84 40.64,-13.01 13.61,-4.18 27.31,-8.21 41.06,-12.04l0.02 0c13.75,-3.87 27.58,-7.57 41.45,-11.1l0.03 0c13.91,-3.52 27.86,-6.86 41.87,-10.06 14.04,-3.18 28.13,-6.23 42.27,-9.07 14.14,-2.87 28.36,-5.57 42.63,-8.07 14.28,-2.52 28.6,-4.86 42.98,-7.02 14.38,-2.18 28.86,-4.18 43.35,-5.99 14.5,-1.82 29.04,-3.47 43.66,-4.92 14.61,-1.47 29.3,-2.76 44,-3.86 14.72,-1.11 29.46,-2.03 44.29,-2.76 14.8,-0.76 29.67,-1.32 44.58,-1.68 14.93,-0.37 29.86,-0.56 44.84,-0.56 969.22,0 1754.91,782.75 1754.91,1748.34 0,965.59 -785.69,1748.34 -1754.91,1748.34 -969.22,0 -1754.91,-782.75 -1754.91,-1748.34l0 -0.44 0 -0.43 0 -0.44 0 -0.42 0 -0.03 0 -0.42 0 -0.03 0 -0.39 0 -0.03 0 -0.42 0 -0.02 0 -0.4 0 -0.05 0 -0.39 0 -0.06 0.03 -2.97 0 -0.1zm-10694.4 3414.24l-1.13 31.65c-29.28,637.92 -401.72,1186.65 -937.67,1467.3l-0.03 0c-12.17,6.38 -24.42,12.61 -36.77,18.71l-0.03 0c-12.33,6.1 -24.76,12.07 -37.25,17.88l-0.05 0c-12.51,5.81 -25.05,11.51 -37.72,17.03l-0.02 0c-12.67,5.52 -25.4,10.91 -38.22,16.14l-0.03 0c-12.83,5.23 -25.71,10.33 -38.67,15.27l-0.02 0c-12.96,4.94 -26,9.73 -39.11,14.38l-0.03 0c-13.12,4.65 -26.31,9.15 -39.56,13.48 -13.25,4.34 -26.6,8.52 -39.98,12.54l-0.03 0c-13.4,4.02 -26.83,7.91 -40.37,11.62 -13.54,3.7 -27.13,7.28 -40.77,10.67l-0.02 0c-13.67,3.39 -27.39,6.65 -41.17,9.73 -13.77,3.07 -27.62,5.99 -41.53,8.75 -13.9,2.76 -27.86,5.33 -41.87,7.75l-0.03 0c-14.01,2.42 -28.07,4.68 -42.21,6.78 -14.12,2.08 -28.34,4.03 -42.56,5.76l-0.02 0c-14.25,1.76 -28.52,3.37 -42.87,4.76 -14.36,1.42 -28.73,2.65 -43.19,3.7 -14.43,1.08 -28.94,1.95 -43.48,2.66 -14.53,0.71 -29.12,1.24 -43.74,1.6 -14.64,0.37 -29.3,0.56 -44.02,0.56 -969.22,0 -1754.91,-782.75 -1754.91,-1748.34 0,-965.59 785.69,-1748.34 1754.91,-1748.34 969.21,0 1754.91,782.75 1754.91,1748.34l0 1.28 0 1.27 0 1.28 0 1.27 0 1.28 -0.03 1.27 0 1.28 0 1.27 0 0.02 0 1.26 -0.03 0 0 1.27 0 0.02 0 1.26 -0.02 1.26 0 0.03 0 1.26 0 1.26 -0.03 0.03 0 1.26 0 1.26 -0.03 0 0 1.27 -0.02 0.02 0 1.26 0 1.27 -0.03 0.02 0 1.26 -0.02 0 0 1.27 0 0.02 0 1.26 -0.03 0 0 1.27 -0.03 0 0 1.26 -0.02 0.02 0 1.26 -0.03 0 0 1.27 -0.03 0.02 0 1.24 -0.02 0.02 0 1.27 -0.03 0 0 1.26 -0.02 0.02 0 1.24 -0.03 0.03 0 1.26 -0.03 0 0 1.26 -0.02 0 -0.11 5.07 -0.02 0.03 -0.08 3.78 -0.03 0z"/>
 </g>
</svg>
